<?xml version="1.0" standalone="no"?>
<!DOCTYPE svg PUBLIC "-//W3C//DTD SVG 1.1//EN" "http://www.w3.org/Graphics/SVG/1.1/DTD/svg11.dtd">
<svg version="1.1" xmlns="http://www.w3.org/2000/svg" viewBox="0 0 712.4543218931133 416.1579881596682" width="712.4543218931133" height="416.1579881596682"><!-- svg-source:excalidraw --><metadata></metadata><defs><style class="style-fonts">
      @font-face { font-family: Excalifont; src: url(https://esm.sh/@excalidraw/excalidraw/dist/prod/fonts/Excalifont/Excalifont-Regular-a88b72a24fb54c9f94e3b5fdaa7481c9.woff2); }</style></defs><rect x="0" y="0" width="712.4543218931133" height="416.1579881596682" fill="#ffffff"></rect><g stroke-linecap="round" transform="translate(108.18157670479746 52.69491602563198) rotate(0 238.80001831054688 150.79558911028616)"><path d="M32 0 C147.14 1.65, 261.1 1.91, 445.6 0 M32 0 C195.23 0.86, 359.23 0.89, 445.6 0 M445.6 0 C467.96 0.39, 478.92 10.58, 477.6 32 M445.6 0 C465.53 -1.11, 478.01 10.06, 477.6 32 M477.6 32 C478.72 118.27, 475.64 206.19, 477.6 269.59 M477.6 32 C476.13 120.49, 476.51 209.3, 477.6 269.59 M477.6 269.59 C476.71 291.69, 466.32 300.37, 445.6 301.59 M477.6 269.59 C478.64 293.02, 464.79 303.6, 445.6 301.59 M445.6 301.59 C299.01 300.66, 152.45 300.92, 32 301.59 M445.6 301.59 C336.4 303.83, 226.95 303.07, 32 301.59 M32 301.59 C9.63 302.48, -0.06 290.3, 0 269.59 M32 301.59 C8.75 300.95, 1.39 289.8, 0 269.59 M0 269.59 C0.97 195.51, 0.51 121.13, 0 32 M0 269.59 C2.1 195.42, 1.87 121.73, 0 32 M0 32 C0.95 10.9, 11.47 -1.86, 32 0 M0 32 C0.03 9.09, 12.2 -0.44, 32 0" stroke="#1e1e1e" stroke-width="2" fill="none"></path></g><g stroke-linecap="round" transform="translate(111.38149735909434 10.085919443939929) rotate(0 235.6000213623047 19.199996948242188)"><path d="M9.6 0 C111.73 1.17, 214.07 -0.23, 461.6 0 M9.6 0 C105.22 1.81, 201.67 1.08, 461.6 0 M461.6 0 C467.22 -1.77, 469.66 2.87, 471.2 9.6 M461.6 0 C467.21 1.2, 471.08 3.57, 471.2 9.6 M471.2 9.6 C470.97 12.86, 469.36 18.23, 471.2 28.8 M471.2 9.6 C470.82 15.59, 470.46 19.46, 471.2 28.8 M471.2 28.8 C473.06 35.58, 466.12 37.15, 461.6 38.4 M471.2 28.8 C473.48 36.52, 468.13 39.32, 461.6 38.4 M461.6 38.4 C303.19 36.52, 146.73 36.99, 9.6 38.4 M461.6 38.4 C362.7 36.5, 264.77 36.55, 9.6 38.4 M9.6 38.4 C3.68 40.37, 1.85 35.53, 0 28.8 M9.6 38.4 C4.04 38.57, -1.94 34.04, 0 28.8 M0 28.8 C1.51 23.14, 0.28 13.6, 0 9.6 M0 28.8 C-0.29 21.15, -0.48 14.58, 0 9.6 M0 9.6 C0.35 4.99, 2.02 -1.6, 9.6 0 M0 9.6 C-0.05 4.27, 2.52 -1.89, 9.6 0" stroke="#1e1e1e" stroke-width="2" fill="none"></path></g><g transform="translate(637.7743749936992 10) rotate(0 32.33997344970703 12.5)"><text x="0" y="17.619999999999997" font-family="Excalifont, Xiaolai, sans-serif, Segoe UI Emoji" font-size="20px" fill="#1e1e1e" text-anchor="start" style="white-space: pre;" direction="ltr" dominant-baseline="alphabetic">header</text></g><g stroke-linecap="round"><g transform="translate(588.5815400837037 27.967623708170606) rotate(0 21.89180533139944 -4.541654681465239)"><path d="M0.39 0.49 C7.45 -1.17, 35.69 -7.94, 42.82 -9.57 M-0.07 0.27 C7.11 -1.35, 36.72 -7.15, 43.86 -8.9" stroke="#1e1e1e" stroke-width="2" fill="none"></path></g><g transform="translate(588.5815400837037 27.967623708170606) rotate(0 21.89180533139944 -4.541654681465239)"><path d="M25.15 2.9 C33.27 -2.44, 39.56 -6.46, 43.86 -8.9 M25.15 2.9 C31.65 -0.74, 38.11 -4.92, 43.86 -8.9" stroke="#1e1e1e" stroke-width="2" fill="none"></path></g><g transform="translate(588.5815400837037 27.967623708170606) rotate(0 21.89180533139944 -4.541654681465239)"><path d="M21.94 -11.89 C31.37 -11.49, 38.9 -9.75, 43.86 -8.9 M21.94 -11.89 C29.59 -10.48, 37.16 -9.61, 43.86 -8.9" stroke="#1e1e1e" stroke-width="2" fill="none"></path></g></g><mask></mask><g stroke-linecap="round" transform="translate(127.05376942202724 18.102245407888006) rotate(0 59.725766164655425 10.088787258610651)"><path d="M5.04 0 C39.16 0.05, 77.53 -2.19, 114.41 0 M5.04 0 C39.94 0.32, 76.65 1.46, 114.41 0 M114.41 0 C118.66 1.23, 120.28 0.96, 119.45 5.04 M114.41 0 C115.62 2.04, 121.58 3.01, 119.45 5.04 M119.45 5.04 C118.88 8.51, 118.94 12.3, 119.45 15.13 M119.45 5.04 C119.74 8.27, 119.52 11.63, 119.45 15.13 M119.45 15.13 C118.22 18.42, 116.69 19.21, 114.41 20.18 M119.45 15.13 C119.03 19.84, 119.43 20.15, 114.41 20.18 M114.41 20.18 C91.16 17.46, 70.34 18.92, 5.04 20.18 M114.41 20.18 C82.12 21.24, 49.64 21.26, 5.04 20.18 M5.04 20.18 C0.34 19.6, 0.71 19.2, 0 15.13 M5.04 20.18 C1.6 18.36, -0.7 20.03, 0 15.13 M0 15.13 C0.15 13.19, -0.47 10.17, 0 5.04 M0 15.13 C0.52 11.19, 0.2 7.53, 0 5.04 M0 5.04 C1.66 0.19, 2.86 -1.4, 5.04 0 M0 5.04 C-0.48 0.15, 1.11 -1.71, 5.04 0" stroke="#1e1e1e" stroke-width="2" fill="none"></path></g><g transform="translate(169.55936382696353 15.885337161208014) rotate(0 16.269989013671875 12.5)"><text x="0" y="17.619999999999997" font-family="Excalifont, Xiaolai, sans-serif, Segoe UI Emoji" font-size="20px" fill="#1e1e1e" text-anchor="start" style="white-space: pre;" direction="ltr" dominant-baseline="alphabetic">nav</text></g><g stroke-linecap="round" transform="translate(129.66952287022275 86.36729541097202) rotate(0 214.0536563559148 116.83581214180217)"><path d="M32 0 C142.89 -1.08, 253.99 -0.27, 396.11 0 M32 0 C115.11 1.34, 197.34 1.33, 396.11 0 M396.11 0 C415.94 -1.54, 426.95 12.31, 428.11 32 M396.11 0 C419.53 -0.85, 426.01 9.93, 428.11 32 M428.11 32 C429.78 91.07, 429.54 146.91, 428.11 201.67 M428.11 32 C425.87 85.17, 427.18 140.05, 428.11 201.67 M428.11 201.67 C429.32 221.53, 417.89 235.22, 396.11 233.67 M428.11 201.67 C428.87 224.79, 416.75 235.32, 396.11 233.67 M396.11 233.67 C296.53 234.43, 198.06 233.72, 32 233.67 M396.11 233.67 C272.77 231.73, 150.56 231.96, 32 233.67 M32 233.67 C9.7 235.25, 1.64 222.81, 0 201.67 M32 233.67 C10.01 234.72, 2.03 221.43, 0 201.67 M0 201.67 C1.49 148.65, -0.27 92.39, 0 32 M0 201.67 C-1.75 165.08, -0.04 127.64, 0 32 M0 32 C-0.09 10.58, 11.73 0.39, 32 0 M0 32 C1.31 8.77, 11.11 0.32, 32 0" stroke="#1e1e1e" stroke-width="2" fill="none"></path></g><g transform="translate(10 52.505519568391264) rotate(0 20.089981079101562 12.5)"><text x="0" y="17.619999999999997" font-family="Excalifont, Xiaolai, sans-serif, Segoe UI Emoji" font-size="20px" fill="#1e1e1e" text-anchor="start" style="white-space: pre;" direction="ltr" dominant-baseline="alphabetic">main</text></g><g stroke-linecap="round"><g transform="translate(105.86449512559528 65.29290950393919) rotate(0 -24.622038093677602 -0.4526765879013652)"><path d="M-0.46 -0.12 C-8.62 -0.3, -41.13 -0.8, -49.31 -0.78 M0.3 -0.66 C-7.86 -0.81, -41.2 -0.31, -49.54 -0.35" stroke="#1e1e1e" stroke-width="2" fill="none"></path></g><g transform="translate(105.86449512559528 65.29290950393919) rotate(0 -24.622038093677602 -0.4526765879013652)"><path d="M-26.25 -8.99 C-31.83 -6.41, -37.93 -4.77, -49.54 -0.35 M-26.25 -8.99 C-34.66 -6.35, -42.1 -3.34, -49.54 -0.35" stroke="#1e1e1e" stroke-width="2" fill="none"></path></g><g transform="translate(105.86449512559528 65.29290950393919) rotate(0 -24.622038093677602 -0.4526765879013652)"><path d="M-26.15 8.01 C-31.79 6.67, -37.92 4.39, -49.54 -0.35 M-26.15 8.01 C-34.56 4.73, -42.03 1.83, -49.54 -0.35" stroke="#1e1e1e" stroke-width="2" fill="none"></path></g></g><mask></mask><g transform="translate(151.90316109439078 111.79532128156626) rotate(0 35.069969177246094 12.5)"><text x="0" y="17.619999999999997" font-family="Excalifont, Xiaolai, sans-serif, Segoe UI Emoji" font-size="20px" fill="#1e1e1e" text-anchor="start" style="white-space: pre;" direction="ltr" dominant-baseline="alphabetic">section</text></g><g stroke-linecap="round" transform="translate(110.0467048844094 367.75799426318383) rotate(0 235.6000213623047 19.199996948242188)"><path d="M9.6 0 C142.17 1.31, 276.12 0.65, 461.6 0 M9.6 0 C102.01 -1.89, 195.07 -1.76, 461.6 0 M461.6 0 C468.94 -0.26, 470.89 4.47, 471.2 9.6 M461.6 0 C469.95 1.77, 471.04 2.89, 471.2 9.6 M471.2 9.6 C472.72 16.6, 471.96 21.66, 471.2 28.8 M471.2 9.6 C471.52 16.31, 471.84 24.54, 471.2 28.8 M471.2 28.8 C472.15 35.16, 468.34 38.74, 461.6 38.4 M471.2 28.8 C473.28 34.39, 470.29 39.51, 461.6 38.4 M461.6 38.4 C335.02 39.23, 210.29 40.33, 9.6 38.4 M461.6 38.4 C299.11 36.95, 135.25 36.22, 9.6 38.4 M9.6 38.4 C3.13 38.99, -0.8 36.23, 0 28.8 M9.6 38.4 C2.65 38.33, 0.34 35.61, 0 28.8 M0 28.8 C0.75 26.51, 0.12 21.92, 0 9.6 M0 28.8 C0.97 21.61, 0.25 15.41, 0 9.6 M0 9.6 C-0.81 1.31, 4.88 1.08, 9.6 0 M0 9.6 C0.06 5.27, 4.97 -2.15, 9.6 0" stroke="#1e1e1e" stroke-width="2" fill="none"></path></g><g transform="translate(626.657589142302 369.00849377412305) rotate(0 31.98998260498047 12.5)"><text x="0" y="17.619999999999997" font-family="Excalifont, Xiaolai, sans-serif, Segoe UI Emoji" font-size="20px" fill="#1e1e1e" text-anchor="start" style="white-space: pre;" direction="ltr" dominant-baseline="alphabetic">footer</text></g><g stroke-linecap="round"><g transform="translate(587.2467476090187 386.2416282038711) rotate(0 16.577203815440896 -2.0156671222521823)"><path d="M-0.26 0.18 C5.4 -0.56, 27.86 -3.46, 33.42 -4.22 M0.6 -0.2 C6.24 -0.89, 27.66 -3, 32.99 -3.62" stroke="#1e1e1e" stroke-width="2" fill="none"></path></g><g transform="translate(587.2467476090187 386.2416282038711) rotate(0 16.577203815440896 -2.0156671222521823)"><path d="M17.88 3.77 C21.18 2.33, 23.63 0.36, 32.99 -3.62 M17.88 3.77 C21.19 1.98, 25.15 0.55, 32.99 -3.62" stroke="#1e1e1e" stroke-width="2" fill="none"></path></g><g transform="translate(587.2467476090187 386.2416282038711) rotate(0 16.577203815440896 -2.0156671222521823)"><path d="M16.66 -7.67 C20.24 -6.81, 22.93 -6.47, 32.99 -3.62 M16.66 -7.67 C20.27 -6.72, 24.52 -5.4, 32.99 -3.62" stroke="#1e1e1e" stroke-width="2" fill="none"></path></g></g><mask></mask></svg>